<?xml version="1.0" encoding="UTF-8"?>
<svg xmlns="http://www.w3.org/2000/svg" width="153" height="31" viewBox="0 0 153 31" fill="none">
  <path d="M66.0517 6.86113H56.1628V0.28375H66.0517H72.6343H82.5232V6.86113H72.6343V30.0457H66.0517V6.86113Z" fill="white"></path>
  <path d="M85.5123 0.28375H92.0651V11.8909V18.4385V30.0457H85.5123V18.4385V11.8909V0.28375Z" fill="white"></path>
  <path d="M109.41 0.28375C117.303 0.28375 123.796 6.74208 123.796 14.6588V15.6707C123.796 23.5873 117.303 30.0457 109.41 30.0457C101.517 30.0457 95.053 23.5873 95.053 15.6707V14.6588C95.053 6.74208 101.517 0.28375 109.41 0.28375ZM109.41 6.86113C105.121 6.86113 101.636 10.373 101.636 14.6588V15.6707C101.636 19.9564 105.121 23.4683 109.41 23.4683C113.699 23.4683 117.214 19.9564 117.214 15.6707V14.6588C117.214 10.373 113.699 6.86113 109.41 6.86113Z" fill="white"></path>
  <path d="M133.341 30.0457H126.788V8.73613V0.28375L133.341 5.61113L139.774 10.8195L146.208 16.0278V0.0456543H152.791V21.3552V29.8076L146.208 24.4802L139.774 19.2718L133.341 14.0635V30.0457Z" fill="white"></path>
  <path d="M0 0.0456543L16.1495 26.5974L29.5205 4.18359H32.8199L18.0596 30.0457H22.0536L39.4186 0.0456543H27.9577L20.4907 13.1491L12.1555 0.0456543H0Z" fill="white"></path>
  <path d="M28.6046 30.0457L46.1333 0.0456543L62.4419 30.0457H55.6718L46.1333 12.015L35.55 30.0457H28.6046Z" fill="white"></path>
</svg>
